<svg width="35" height="33" viewBox="0 0 35 33" fill="none" xmlns="http://www.w3.org/2000/svg">
<path d="M17.4454 4.40656C24.5911 4.37432 30.3761 9.80316 30.4061 16.442C30.436 23.0808 24.7002 28.5616 17.5545 28.5938C10.4088 28.626 4.62381 23.1972 4.59386 16.5584C4.56391 9.91961 10.2997 4.43879 17.4454 4.40656ZM17.4496 5.34405C10.9263 5.37348 5.62837 10.3518 5.65635 16.5536C5.68432 22.7555 11.0269 27.6857 17.5503 27.6563C24.0737 27.6269 29.3716 22.6486 29.3436 16.4468C29.3156 10.2449 23.973 5.31462 17.4496 5.34405ZM18.0073 11.1853L18.0291 16.029L23.1853 16.0058L23.1895 16.9433L18.0333 16.9665L18.0552 21.8102L16.9927 21.815L16.9708 16.9713L11.8146 16.9946L11.8104 16.0571L16.9666 16.0338L16.9448 11.1901L18.0073 11.1853Z" fill="black" stroke="url(#paint0_linear_476_371)"/>
<defs>
<linearGradient id="paint0_linear_476_371" x1="17.4432" y1="3.90656" x2="17.5568" y2="29.0938" gradientUnits="userSpaceOnUse">
<stop stop-color="#283390"/>
<stop offset="1" stop-color="#D72227"/>
</linearGradient>
</defs>
</svg>
