<svg width="33" height="26" viewBox="0 0 33 26" fill="none" xmlns="http://www.w3.org/2000/svg">
<path d="M20.9 25.1334H29.7C30.2835 25.1334 30.843 24.9507 31.2556 24.6257C31.6682 24.3006 31.9 23.8597 31.9 23.4V2.60003C31.9 2.14032 31.6682 1.69944 31.2556 1.37438C30.843 1.04932 30.2835 0.866699 29.7 0.866699H20.9C20.3165 0.866699 19.7569 1.04932 19.3443 1.37438C18.9318 1.69944 18.7 2.14032 18.7 2.60003V23.4C18.7 23.8597 18.9318 24.3006 19.3443 24.6257C19.7569 24.9507 20.3165 25.1334 20.9 25.1334ZM20.9 25.1334H8.79998H20.9ZM14.3 19.9334V25.1334V19.9334ZM18.7 9.53337H31.9H18.7ZM22 19.9334H28.6H22ZM3.29998 6.0667H18.7V19.9334H3.29998C2.7165 19.9334 2.15692 19.7507 1.74434 19.4257C1.33176 19.1006 1.09998 18.6597 1.09998 18.2V7.80003C1.09998 7.34032 1.33176 6.89944 1.74434 6.57438C2.15692 6.24932 2.7165 6.0667 3.29998 6.0667Z" fill="white"/>
<path d="M20.9 25.1334H29.7C30.2835 25.1334 30.843 24.9507 31.2556 24.6257C31.6682 24.3006 31.9 23.8597 31.9 23.4V2.60003C31.9 2.14032 31.6682 1.69944 31.2556 1.37438C30.843 1.04932 30.2835 0.866699 29.7 0.866699H20.9C20.3165 0.866699 19.7569 1.04932 19.3443 1.37438C18.9318 1.69944 18.7 2.14032 18.7 2.60003V23.4C18.7 23.8597 18.9318 24.3006 19.3443 24.6257C19.7569 24.9507 20.3165 25.1334 20.9 25.1334ZM20.9 25.1334H8.79998M14.3 19.9334V25.1334M18.7 9.53337H31.9M22 19.9334H28.6M3.29998 6.0667H18.7V19.9334H3.29998C2.7165 19.9334 2.15692 19.7507 1.74434 19.4257C1.33176 19.1006 1.09998 18.6597 1.09998 18.2V7.80003C1.09998 7.34032 1.33176 6.89944 1.74434 6.57438C2.15692 6.24932 2.7165 6.0667 3.29998 6.0667Z" stroke="url(#paint0_linear_476_377)" stroke-width="1.5"/>
<defs>
<linearGradient id="paint0_linear_476_377" x1="16.5" y1="0.866699" x2="16.5" y2="25.1334" gradientUnits="userSpaceOnUse">
<stop stop-color="#2B338E"/>
<stop offset="1" stop-color="#EA1D21"/>
</linearGradient>
</defs>
</svg>
