<svg width="22" height="22" viewBox="0 0 22 22" fill="none" xmlns="http://www.w3.org/2000/svg">
<path d="M17 9.99704C16.608 9.19704 15.548 8.02104 13.37 8.07104C13.37 8.07104 11.643 7.99604 9.68999 7.99604C7.73799 7.99604 6.82399 8.04204 5.25999 8.07104C4.25899 8.04604 2.35599 8.27104 1.47999 10.347C0.903986 12.097 0.879986 15.774 1.22999 17.624C1.30499 18.574 1.80599 19.9 3.35799 20.6C4.30799 21.1 5.83599 20.9 6.98799 21M4.98399 7.19604C4.93399 4.82104 4.83399 2.94604 7.58699 1.39504C8.51299 1.02004 9.88999 0.695042 11.592 1.49504C13.369 2.57004 13.591 3.70804 13.745 3.99504C14.17 5.12104 13.945 6.72104 13.995 7.37104" stroke="#FFFDFD" stroke-width="1.5" stroke-linecap="round" stroke-linejoin="round"/>
<path d="M14.225 16.79L16.215 14.848M16.215 14.848L17.626 13.49C17.95 13.214 18.6 12.568 19.373 13.308L21 14.848M16.215 14.848L17.825 16.393M14.5 18.735C14.5 19.0291 14.4418 19.3203 14.3288 19.5919C14.2158 19.8634 14.0502 20.1099 13.8416 20.3172C13.6329 20.5244 13.3853 20.6884 13.113 20.7996C12.8407 20.9108 12.5491 20.967 12.255 20.965C11.019 20.965 10 19.979 10 18.735C10.0024 18.1387 10.2411 17.5676 10.6638 17.147C11.0865 16.7264 11.6587 16.4905 12.255 16.491C13.491 16.491 14.5 17.491 14.5 18.735Z" stroke="#FFFDFD" stroke-width="1.5" stroke-linecap="round" stroke-linejoin="round"/>
</svg>
