<svg width="16" height="16" viewBox="0 0 16 16" fill="none" xmlns="http://www.w3.org/2000/svg">
<path d="M3.1675 6.57214C4.4275 8.95971 6.4575 10.917 8.93375 12.1319L10.8587 10.2758C11.1037 10.0396 11.445 9.97211 11.7513 10.0649C12.7313 10.3771 13.7812 10.5458 14.875 10.5458C15.1071 10.5458 15.3296 10.6347 15.4937 10.7929C15.6578 10.9511 15.75 11.1657 15.75 11.3895V14.3423C15.75 14.566 15.6578 14.7806 15.4937 14.9388C15.3296 15.0971 15.1071 15.186 14.875 15.186C10.9299 15.186 7.14639 13.6749 4.35679 10.9852C1.56718 8.29549 0 4.64748 0 0.843664C0 0.61991 0.0921872 0.405321 0.256282 0.247103C0.420376 0.0888857 0.642936 0 0.875 0H3.9375C4.16956 0 4.39212 0.0888857 4.55622 0.247103C4.72031 0.405321 4.8125 0.61991 4.8125 0.843664C4.8125 1.89824 4.9875 2.91064 5.31125 3.85554C5.4075 4.15083 5.3375 4.47986 5.0925 4.71608L3.1675 6.57214Z" fill="black"/>
</svg>
