<svg width="34" height="30" viewBox="0 0 34 30" fill="none" xmlns="http://www.w3.org/2000/svg">
<mask id="path-1-inside-1_476_359" fill="white">
<path d="M17 25.2C10.608 25.2 5.44 20.64 5.44 15C5.44 9.36005 10.608 4.80005 17 4.80005C23.392 4.80005 28.56 9.36005 28.56 15C28.56 20.64 23.392 25.2 17 25.2ZM17 6.00005C11.356 6.00005 6.8 10.02 6.8 15C6.8 19.98 11.356 24 17 24C22.644 24 27.2 19.98 27.2 15C27.2 10.02 22.644 6.00005 17 6.00005Z"/>
</mask>
<path d="M17 25.2C10.608 25.2 5.44 20.64 5.44 15C5.44 9.36005 10.608 4.80005 17 4.80005C23.392 4.80005 28.56 9.36005 28.56 15C28.56 20.64 23.392 25.2 17 25.2ZM17 6.00005C11.356 6.00005 6.8 10.02 6.8 15C6.8 19.98 11.356 24 17 24C22.644 24 27.2 19.98 27.2 15C27.2 10.02 22.644 6.00005 17 6.00005Z" fill="black"/>
<path d="M17 25.2V23.2C11.47 23.2 7.44 19.3076 7.44 15H5.44H3.44C3.44 21.9725 9.74602 27.2 17 27.2V25.2ZM5.44 15H7.44C7.44 10.6925 11.47 6.80005 17 6.80005V4.80005V2.80005C9.74602 2.80005 3.44 8.02758 3.44 15H5.44ZM17 4.80005V6.80005C22.53 6.80005 26.56 10.6925 26.56 15H28.56H30.56C30.56 8.02758 24.254 2.80005 17 2.80005V4.80005ZM28.56 15H26.56C26.56 19.3076 22.53 23.2 17 23.2V25.2V27.2C24.254 27.2 30.56 21.9725 30.56 15H28.56ZM17 6.00005V4.00005C10.494 4.00005 4.8 8.68758 4.8 15H6.8H8.8C8.8 11.3525 12.218 8.00005 17 8.00005V6.00005ZM6.8 15H4.8C4.8 21.3125 10.494 26 17 26V24V22C12.218 22 8.8 18.6476 8.8 15H6.8ZM17 24V26C23.506 26 29.2 21.3125 29.2 15H27.2H25.2C25.2 18.6476 21.782 22 17 22V24ZM27.2 15H29.2C29.2 8.68758 23.506 4.00005 17 4.00005V6.00005V8.00005C21.782 8.00005 25.2 11.3525 25.2 15H27.2Z" fill="url(#paint0_linear_476_359)" mask="url(#path-1-inside-1_476_359)"/>
<path d="M22.644 16.0201L17 11.0401L11.356 16.0201L10.404 15.1801L17 9.36011L23.596 15.1801L22.644 16.0201Z" fill="black"/>
<path d="M17.1804 10.7V19.9001H16.82V10.7H17.1804Z" fill="black" stroke="url(#paint1_linear_476_359)"/>
<defs>
<linearGradient id="paint0_linear_476_359" x1="17" y1="4.80005" x2="17" y2="25.2" gradientUnits="userSpaceOnUse">
<stop stop-color="#263590"/>
<stop offset="1" stop-color="#EA1C26"/>
</linearGradient>
<linearGradient id="paint1_linear_476_359" x1="17" y1="10.2" x2="17" y2="20.4" gradientUnits="userSpaceOnUse">
<stop stop-color="#2A3287"/>
<stop offset="1" stop-color="#ED1B23"/>
</linearGradient>
</defs>
</svg>
